<svg viewBox="0 0 24 24" xmlns="http://www.w3.org/2000/svg" class="svg-icon">
	<path d="M4.8914 7.31384C5.2206 7.06245 5.69127 7.12552 5.94267 7.45472L11.9601 15.3345C11.9665 15.337 11.9784 15.3401 11.9943 15.3401C12.0102 15.3401 12.0221 15.337 12.0284 15.3345L18.0577 7.45417C18.3094 7.1252 18.7801 7.06256 19.1091 7.31426C19.4381 7.56596 19.5007 8.03668 19.249 8.36565L13.2144 16.2529C12.9012 16.6627 12.4257 16.8401 11.9943 16.8401C11.5626 16.8401 11.0873 16.663 10.7741 16.2529L4.75053 8.36511C4.49913 8.03591 4.5622 7.56524 4.8914 7.31384ZM12.0223 15.3425C12.0222 15.3427 12.0224 15.3423 12.0223 15.3425Z"/>
</svg>
